<svg width="16" height="15" viewBox="0 0 16 15" fill="none" xmlns="http://www.w3.org/2000/svg">
<path d="M4.30017 11.3912L5.30013 10.1202L2.08108 7.50081L5.30013 4.88147L4.30017 3.61045L0.300361 6.8653C0.206642 6.94153 0.130984 7.03824 0.0789901 7.14824C0.0269965 7.25825 0 7.37875 0 7.50081C0 7.62288 0.0269965 7.74337 0.0789901 7.85338C0.130984 7.96339 0.206642 8.06009 0.300361 8.13632L4.30017 11.3912ZM11.6998 3.61045L10.6999 4.88147L13.9189 7.50081L10.6999 10.1202L11.6998 11.3912L15.6996 8.13632C15.7934 8.06009 15.869 7.96339 15.921 7.85338C15.973 7.74337 16 7.62288 16 7.50081C16 7.37875 15.973 7.25825 15.921 7.14824C15.869 7.03824 15.7934 6.94153 15.6996 6.8653L11.6998 3.61045ZM10.3807 0.353152L7.18084 15L5.61851 14.6468L8.81836 0L10.3807 0.353152Z" fill="white"/>
</svg>
