<svg width="25" height="20" viewBox="0 0 25 20" fill="none" xmlns="http://www.w3.org/2000/svg">
<path d="M13.9001 10.3958C13.9001 15.6991 10.7961 19.9985 6.96704 19.9985C3.13795 19.9985 0.0341797 15.7004 0.0341797 10.3958C0.0341797 5.09122 3.13818 0.793457 6.96704 0.793457C10.7959 0.793457 13.9001 5.09251 13.9001 10.3958ZM21.5058 10.3958C21.5058 15.3882 19.9537 19.435 18.0393 19.435C16.1248 19.435 14.5727 15.3869 14.5727 10.3958C14.5727 5.4047 16.1248 1.35663 18.0393 1.35663C19.9537 1.35663 21.5058 5.4047 21.5058 10.3958ZM24.6166 10.3958C24.6166 14.8688 24.0707 18.4946 23.3974 18.4946C22.7241 18.4946 22.1782 14.8675 22.1782 10.3958C22.1782 5.92415 22.7241 2.29707 23.3976 2.29707C24.0712 2.29707 24.6166 5.92318 24.6166 10.3958Z" fill="white"/>
</svg>
