<svg width="19" height="21" viewBox="0 0 19 21" fill="none" xmlns="http://www.w3.org/2000/svg">
<path d="M16.5367 0C17.7571 0 18.7413 0.986889 18.7995 2.14824V20.8314L16.4759 18.8585L15.2 17.6972L13.8078 16.4837L14.3893 18.3976H2.20466C0.987757 18.3976 0 17.4732 0 16.2485V2.15258C0 0.991229 0.989493 0.00260393 2.209 0.00260393H16.5306L16.5367 0ZM11.2264 4.93271H11.2004L11.025 5.1063C12.8243 5.62709 13.6949 6.44038 13.6949 6.44038C12.5353 5.86057 11.4903 5.57067 10.4452 5.45349C9.69009 5.33632 8.93495 5.39794 8.29698 5.45349H8.12339C7.71544 5.45349 6.84746 5.62709 5.68438 6.09146C5.27903 6.26765 5.04641 6.3831 5.04641 6.3831C5.04641 6.3831 5.91613 5.51338 7.83262 5.04902L7.71544 4.93184C7.71544 4.93184 6.26418 4.87629 4.69749 6.03417C4.69749 6.03417 3.13079 8.76309 3.13079 12.1274C3.13079 12.1274 3.99877 13.6376 6.37962 13.6949C6.37962 13.6949 6.72681 13.2323 7.07835 12.8252C5.74166 12.419 5.22088 11.6066 5.22088 11.6066C5.22088 11.6066 5.33718 11.6639 5.51165 11.7802H5.56373C5.58977 11.7802 5.60192 11.7932 5.61581 11.8062V11.8114C5.62969 11.8253 5.64184 11.8375 5.66788 11.8375C5.95432 11.9555 6.24075 12.0718 6.4751 12.1846C6.87958 12.36 7.3995 12.5344 8.03746 12.6499C8.84468 12.7671 9.76994 12.8235 10.8237 12.6499C11.3444 12.5327 11.8652 12.4181 12.386 12.1855C12.7245 12.0119 13.1412 11.8383 13.5986 11.5458C13.5986 11.5458 13.0778 12.3582 11.6847 12.7645C11.9711 13.1689 12.3747 13.6324 12.3747 13.6324C14.7565 13.5804 15.6817 12.0701 15.7338 12.1343C15.7338 8.77524 14.1584 6.04111 14.1584 6.04111C12.7393 4.98739 11.4113 4.94746 11.1769 4.94746L11.2255 4.9301L11.2264 4.93271ZM11.3722 8.76309C11.9824 8.76309 12.4746 9.28387 12.4746 9.92183C12.4746 10.5641 11.9798 11.0849 11.3722 11.0849C10.7646 11.0849 10.2699 10.5641 10.2699 9.92704C10.2716 9.28474 10.7672 8.76569 11.3722 8.76569V8.76309ZM7.42901 8.76309C8.03659 8.76309 8.52787 9.28387 8.52787 9.92183C8.52787 10.5641 8.03312 11.0849 7.42554 11.0849C6.81795 11.0849 6.32321 10.5641 6.32321 9.92704C6.32321 9.28474 6.81795 8.76569 7.42554 8.76569L7.42901 8.76309Z" fill="white"/>
</svg>
