<svg width="20" height="20" viewBox="0 0 20 20" fill="none" xmlns="http://www.w3.org/2000/svg">
<path fill-rule="evenodd" clip-rule="evenodd" d="M9.55893 0.793457C4.29111 0.793457 0.0244141 5.06015 0.0244141 10.328C0.0244141 14.547 2.75367 18.1105 6.54364 19.3738C7.02036 19.4573 7.19913 19.1712 7.19913 18.9209C7.19913 18.6945 7.18722 17.9437 7.18722 17.1451C4.79167 17.5861 4.17193 16.5612 3.98124 16.0248C3.87397 15.7507 3.40917 14.9045 3.00395 14.6781C2.67024 14.4993 2.19352 14.0583 2.99203 14.0464C3.74287 14.0345 4.27919 14.7377 4.45796 15.0237C5.31607 16.4658 6.68666 16.0606 7.23489 15.8103C7.31832 15.1906 7.5686 14.7734 7.84271 14.5351C5.72129 14.2967 3.50451 13.4744 3.50451 9.82741C3.50451 8.79053 3.87397 7.93242 4.4818 7.26501C4.38645 7.02664 4.05275 6.04936 4.57714 4.73836C4.57714 4.73836 5.37566 4.48808 7.19913 5.71565C7.9619 5.50112 8.77233 5.39386 9.58276 5.39386C10.3932 5.39386 11.2036 5.50112 11.9664 5.71565C13.7899 4.47616 14.5884 4.73836 14.5884 4.73836C15.1128 6.04936 14.7791 7.02664 14.6837 7.26501C15.2916 7.93242 15.661 8.77861 15.661 9.82741C15.661 13.4863 13.4323 14.2967 11.3109 14.5351C11.6565 14.833 11.9545 15.4051 11.9545 16.299C11.9545 17.5742 11.9426 18.5992 11.9426 18.9209C11.9426 19.1712 12.1213 19.4692 12.5981 19.3738C14.4908 18.7349 16.1356 17.5184 17.3008 15.8957C18.466 14.273 19.0929 12.3257 19.0934 10.328C19.0934 5.06015 14.8267 0.793457 9.55893 0.793457Z" fill="white"/>
</svg>
