<svg width="24" height="26" viewBox="0 0 24 26" fill="none" xmlns="http://www.w3.org/2000/svg">
<g clip-path="url(#clip0_68010_318)">
<path d="M7.28009 2.62394C6.96855 2.57488 6.95529 2.56981 7.10278 2.54782C7.38449 2.50383 8.04735 2.56304 8.50472 2.673C9.57192 2.93013 10.543 3.58988 11.5804 4.76221L11.8555 5.07348L12.2499 5.00919C13.9103 4.73853 15.5973 4.95337 17.0108 5.61481C17.4003 5.79751 18.0134 6.15953 18.088 6.25257C18.1145 6.28302 18.1592 6.47248 18.1874 6.67718C18.2935 7.38429 18.2421 7.92393 18.0283 8.32824C17.9123 8.54816 17.9057 8.61752 17.9836 8.80698C18.0208 8.88502 18.0788 8.95081 18.1508 8.99687C18.2229 9.04292 18.3062 9.0674 18.3912 9.0675C18.7425 9.0675 19.1204 8.49233 19.2944 7.69048L19.364 7.37076L19.5015 7.52978C20.2588 8.39929 20.8521 9.58346 20.9532 10.4259L20.9797 10.6458L20.8537 10.4462C20.6707 10.1405 20.4247 9.879 20.1329 9.67988C19.6258 9.33986 19.0889 9.22313 17.6704 9.14701C16.3877 9.07934 15.6619 8.96769 14.9427 8.72917C13.7181 8.32317 13.1016 7.78522 11.6467 5.84995C11.0004 4.98889 10.6027 4.51353 10.2049 4.13122C9.3018 3.26001 8.41523 2.80326 7.28009 2.62563V2.62394Z" fill="white"/>
<path d="M18.38 4.54416C18.4115 3.96899 18.4877 3.58837 18.6435 3.24158C18.6776 3.15394 18.7204 3.07005 18.7711 2.99121C18.7794 2.99121 18.7528 3.09271 18.7114 3.2162C18.5987 3.55454 18.5788 4.01467 18.6584 4.55093C18.7578 5.23098 18.8125 5.32909 19.5201 6.06328C19.8532 6.40838 20.2393 6.84144 20.3802 7.02922L20.6354 7.36755L20.3802 7.12564C20.0686 6.8296 19.3527 6.25105 19.1936 6.16816C19.0876 6.11403 19.071 6.11403 19.0064 6.18C18.9451 6.2409 18.9335 6.33225 18.9235 6.76532C18.9119 7.44029 18.8208 7.87336 18.602 8.30474C18.4844 8.54157 18.4662 8.49082 18.5722 8.22523C18.6518 8.02899 18.66 7.94103 18.66 7.28804C18.66 5.977 18.5043 5.66066 17.6044 5.12271C17.333 4.96268 17.0543 4.8159 16.7692 4.68288C16.6288 4.62524 16.4925 4.5574 16.3616 4.47988C16.3864 4.4545 17.2647 4.71502 17.6177 4.85204C18.1447 5.05843 18.2308 5.0838 18.2955 5.06012C18.3369 5.0432 18.3584 4.91633 18.3783 4.54416H18.38ZM7.8853 6.789C7.25393 5.90595 6.86119 4.55093 6.94736 3.53762L6.97221 3.22466L7.11639 3.25004C7.38816 3.30079 7.85381 3.47672 8.07256 3.61205C8.67079 3.98084 8.93096 4.46634 9.19444 5.71479C9.27233 6.08019 9.37341 6.49296 9.41981 6.63506C9.49439 6.86005 9.77941 7.38616 10.0098 7.72788C10.1755 7.97486 10.0661 8.09159 9.69821 8.05775C9.13644 8.007 8.37581 7.47413 7.8853 6.789ZM17.6111 13.3645C14.6547 12.1584 13.614 11.1095 13.614 9.34173C13.614 9.08121 13.6223 8.86806 13.6339 8.86806C13.6439 8.86806 13.7582 8.95264 13.8875 9.05922C14.4874 9.54642 15.1585 9.75449 17.0178 10.0302C18.1115 10.1926 18.7247 10.3229 19.2931 10.5141C21.0994 11.1214 22.2146 12.3529 22.4814 14.0327C22.5576 14.5199 22.5146 15.4334 22.387 15.9155C22.2875 16.2962 21.9859 16.9813 21.9064 17.0084C21.8832 17.0168 21.8616 16.9305 21.8567 16.8121C21.8268 16.1828 21.512 15.5688 20.985 15.1086C20.3851 14.5859 19.5798 14.1697 17.6111 13.3662V13.3645ZM15.5363 13.8669C15.5016 13.6527 15.454 13.4408 15.3938 13.2326L15.3176 13.0042L15.4584 13.1649C15.6523 13.3848 15.8064 13.6673 15.9357 14.0446C16.0351 14.3321 16.0451 14.4167 16.0451 14.8836C16.0451 15.3421 16.0318 15.4385 15.939 15.6956C15.8117 16.0769 15.5982 16.4223 15.3159 16.7039C14.7757 17.2621 14.0814 17.57 13.0788 17.6986C12.9048 17.7206 12.3977 17.7578 11.9519 17.7815C10.8267 17.8407 10.086 17.9642 9.42147 18.201C9.36123 18.228 9.29663 18.2435 9.2309 18.2467C9.20439 18.2196 9.65844 17.9455 10.0313 17.7628C10.5583 17.504 11.0836 17.3636 12.2602 17.1657C12.8402 17.0676 13.4417 16.9475 13.5942 16.9001C15.0326 16.4535 15.7733 15.2981 15.5363 13.8669Z" fill="white"/>
<path d="M16.8916 16.3093C16.4989 15.4533 16.4077 14.6261 16.6232 13.8547C16.6464 13.7701 16.6828 13.7041 16.706 13.7041C16.7276 13.7041 16.822 13.7549 16.9115 13.8174C17.0938 13.9409 17.455 14.149 18.4228 14.6836C19.6292 15.3518 20.3186 15.8677 20.7859 16.4598C21.1952 16.9758 21.4488 17.5662 21.5714 18.2834C21.641 18.6894 21.5996 19.6706 21.4968 20.08C21.172 21.3724 20.4197 22.3874 19.3425 22.9795C19.1851 23.0658 19.0442 23.1368 19.0277 23.1368C19.0128 23.1368 19.0708 22.9897 19.1553 22.8087C19.5182 22.0406 19.5596 21.2946 19.2862 20.464C19.1172 19.9548 18.7758 19.334 18.0864 18.2834C17.2844 17.0654 17.0888 16.739 16.8916 16.3093ZM5.78544 20.9326C6.88413 19.992 8.24796 19.3255 9.49247 19.1191C10.1335 19.0352 10.7837 19.0609 11.4164 19.1953C12.2118 19.4016 12.9244 19.8652 13.294 20.4149C13.6552 20.9546 13.811 21.4232 13.9734 22.4686C14.0364 22.8797 14.106 23.2942 14.1258 23.3872C14.2468 23.9285 14.4838 24.3616 14.7754 24.5781C15.2394 24.9232 16.0415 24.9452 16.8286 24.634C16.9104 24.5955 16.9968 24.5682 17.0855 24.5528C17.1137 24.5815 16.7176 24.8505 16.4392 24.9926C16.1089 25.1719 15.7394 25.2627 15.3654 25.2565C14.6445 25.2565 14.0463 24.8843 13.5458 24.1265C13.3623 23.8056 13.1985 23.4734 13.0553 23.1318C12.5284 21.9121 12.2682 21.5416 11.6567 21.1339C11.1231 20.7787 10.4354 20.7161 9.91836 20.9732C9.23893 21.3115 9.05001 22.1912 9.53721 22.7494C9.7648 22.9893 10.0626 23.1472 10.3857 23.1994C10.514 23.2174 10.6446 23.207 10.7686 23.1688C10.8927 23.1307 11.0072 23.0658 11.1045 22.9785C11.2018 22.8912 11.2796 22.7836 11.3325 22.6629C11.3855 22.5423 11.4124 22.4114 11.4114 22.2792C11.4114 21.9121 11.2722 21.704 10.9226 21.5416C10.4437 21.3234 9.93161 21.5788 9.93327 22.0339C9.93327 22.2284 10.0178 22.3502 10.21 22.4399C10.3326 22.4957 10.336 22.4991 10.2349 22.4788C9.79738 22.3857 9.69464 21.8495 10.046 21.4942C10.4702 21.0679 11.3452 21.2557 11.6451 21.8393C11.771 22.0846 11.786 22.5718 11.6766 22.8662C11.428 23.5259 10.7121 23.8727 9.98298 23.6832C9.48584 23.5547 9.28533 23.416 8.6871 22.7917C7.64807 21.7057 7.24538 21.4942 5.74733 21.2574L5.45898 21.2117L5.78544 20.9326Z" fill="white"/>
<path fill-rule="evenodd" clip-rule="evenodd" d="M0.911009 1.49579C4.38107 5.76894 6.77232 7.53166 7.03747 7.90382C7.25621 8.21171 7.17335 8.48914 6.79884 8.70567C6.53251 8.84227 6.2426 8.92445 5.94541 8.94758C5.70181 8.94758 5.61729 8.85285 5.61729 8.85285C5.47644 8.71752 5.39689 8.7412 4.67272 7.43692C4.05704 6.45873 3.43394 5.48543 2.80347 4.51711C2.75044 4.46636 2.75209 4.46636 4.57164 7.77018C4.86495 8.45869 4.62964 8.71075 4.62964 8.80887C4.62964 9.00848 4.57495 9.11337 4.33301 9.38911C3.92867 9.84586 3.74804 10.3601 3.61712 11.4242C3.47129 12.6168 3.06032 13.4593 1.92021 14.9023C1.25404 15.7464 1.14467 15.9003 0.975637 16.2421C0.763523 16.67 0.705523 16.9103 0.682323 17.4499C0.657466 18.0234 0.705523 18.3922 0.877866 18.9386C1.02701 19.419 1.18609 19.7337 1.58878 20.3663C1.93678 20.9127 2.13564 21.3187 2.13564 21.4778C2.13564 21.6029 2.15884 21.6029 2.69907 21.4795C3.98501 21.1851 5.03067 20.6674 5.61895 20.0297C5.98352 19.6355 6.06804 19.419 6.07135 18.8794C6.07301 18.5275 6.06141 18.4531 5.96695 18.2501C5.81449 17.9202 5.5361 17.6444 4.92295 17.2181C4.11758 16.6599 3.77289 16.2116 3.68009 15.5941C3.60055 15.0866 3.69169 14.7297 4.13581 13.7841C4.59649 12.8029 4.71084 12.385 4.78872 11.3988C4.83844 10.7611 4.90638 10.509 5.08701 10.306C5.27592 10.0962 5.44495 10.0252 5.91227 9.96089C6.67289 9.85432 7.15512 9.65639 7.55284 9.28422C7.71226 9.1499 7.84088 8.98153 7.92964 8.79096C8.01839 8.60039 8.06513 8.39227 8.06655 8.18126L8.08312 7.82601L7.88924 7.59933C7.19158 6.77379 0.443695 0.846191 0.400609 0.846191C0.392323 0.846191 0.621009 1.13885 0.911009 1.49579ZM2.52838 18.0995C2.60441 17.9624 2.62701 17.8011 2.59169 17.6478C2.55636 17.4945 2.46571 17.3604 2.33781 17.2723C2.08924 17.1031 1.69981 17.1843 1.69981 17.4025C1.69981 17.4702 1.73627 17.5193 1.81912 17.5616C1.95832 17.6343 1.96827 17.7155 1.85889 17.883C1.74787 18.0504 1.75781 18.1976 1.88375 18.2991C2.08758 18.4598 2.37592 18.3719 2.52838 18.0995ZM8.56204 10.1487C8.20575 10.2586 7.85941 10.6426 7.75004 11.0452C7.68541 11.2905 7.72352 11.7219 7.8213 11.8539C7.98038 12.0687 8.13284 12.1245 8.54878 12.1228C9.36078 12.1178 10.0667 11.7642 10.1496 11.321C10.2159 10.959 9.90598 10.4582 9.47844 10.2366C9.18802 10.1163 8.86935 10.0857 8.56204 10.1487ZM9.51324 10.9015C9.63752 10.7204 9.58284 10.5259 9.36907 10.394C8.96472 10.1419 8.34992 10.35 8.34992 10.7391C8.34992 10.9336 8.66975 11.1451 8.96307 11.1451C9.15861 11.1451 9.42707 11.0266 9.51324 10.9015Z" fill="white"/>
</g>
<defs>
<clipPath id="clip0_68010_318">
<rect width="23.2" height="25.375" fill="white" transform="translate(0.400391)"/>
</clipPath>
</defs>
</svg>
