<svg width="18" height="18" viewBox="0 0 18 18" fill="none" xmlns="http://www.w3.org/2000/svg">
<circle cx="9" cy="9" r="8.5" stroke="white"/>
<path d="M9.69498 2.25C9.39661 2.25 9.11046 2.36853 8.89948 2.5795C8.68851 2.79048 8.56998 3.07663 8.56998 3.375C8.56998 3.67337 8.68851 3.95952 8.89948 4.1705C9.11046 4.38147 9.39661 4.5 9.69498 4.5C9.99335 4.5 10.2795 4.38147 10.4905 4.1705C10.7015 3.95952 10.82 3.67337 10.82 3.375C10.82 3.07663 10.7015 2.79048 10.4905 2.5795C10.2795 2.36853 9.99335 2.25 9.69498 2.25ZM9.42498 5.8275C8.53248 5.9025 6.09498 7.845 6.09498 7.845C5.94498 7.9575 5.98998 7.95 6.10998 8.16C6.22998 8.3625 6.21498 8.3775 6.35748 8.28C6.50748 8.1825 6.75498 8.025 7.16748 7.77C8.75748 6.75 7.42248 9.105 6.73998 13.0725C6.46998 15.0375 8.23998 14.025 8.69748 13.725C9.14748 13.4325 10.355 12.6 10.475 12.5175C10.64 12.405 10.52 12.315 10.3925 12.1275C10.3025 12 10.2125 12.09 10.2125 12.09C9.72498 12.4125 8.83248 13.0875 8.71248 12.66C8.56998 12.2325 9.48498 9.3 9.98748 7.2825C10.07 6.8025 10.295 5.7525 9.42498 5.8275Z" fill="white"/>
</svg>
