<svg width="22" height="20" viewBox="0 0 22 20" fill="none" xmlns="http://www.w3.org/2000/svg">
<path d="M21.9997 10.5069C21.9831 10.0518 21.8351 9.61115 21.5737 9.23819C21.3123 8.86523 20.9486 8.57584 20.5265 8.40493C20.1043 8.23401 19.6417 8.18886 19.1945 8.27492C18.7472 8.36098 18.3344 8.57457 18.0058 8.88995C16.1664 7.63957 14.0041 6.94877 11.7805 6.90107L12.8315 1.85613L16.2918 2.58377C16.333 2.96615 16.509 3.32135 16.7885 3.58561C17.0679 3.84987 17.4324 4.00589 17.8164 4.02565C18.2005 4.04541 18.5791 3.92762 18.8841 3.69344C19.1892 3.45925 19.4008 3.12399 19.481 2.74785C19.5611 2.3717 19.5046 1.9793 19.3215 1.64108C19.1385 1.30286 18.8408 1.04097 18.482 0.90242C18.1233 0.763868 17.7269 0.757729 17.364 0.885104C17.0011 1.01248 16.6955 1.26503 16.502 1.59741L12.5405 0.8051C12.4757 0.790887 12.4087 0.789674 12.3434 0.801532C12.2782 0.81339 12.2159 0.838083 12.1603 0.874179C12.1046 0.910276 12.0567 0.957059 12.0193 1.01182C11.9818 1.06657 11.9556 1.12822 11.9422 1.19317L10.7456 6.80406C8.49462 6.83799 6.30264 7.52931 4.43945 8.79293C4.19018 8.55839 3.89289 8.38086 3.56819 8.27263C3.24349 8.16441 2.89914 8.12808 2.559 8.16617C2.21886 8.20426 1.89108 8.31585 1.59835 8.49321C1.30563 8.67057 1.05497 8.90946 0.863754 9.19332C0.672532 9.47719 0.54532 9.79923 0.490934 10.1371C0.436547 10.4751 0.456286 10.8208 0.548782 11.1503C0.641279 11.4798 0.804322 11.7853 1.02661 12.0455C1.2489 12.3058 1.52512 12.5146 1.83613 12.6575C1.81792 12.8943 1.81792 13.1321 1.83613 13.3689C1.83613 16.991 6.05642 19.9338 11.2631 19.9338C16.4697 19.9338 20.69 16.991 20.69 13.3689C20.7082 13.1321 20.7082 12.8943 20.69 12.6575C21.089 12.4592 21.4237 12.152 21.6555 11.7714C21.8873 11.3908 22.0066 10.9524 21.9997 10.5069ZM5.83004 12.1239C5.83004 11.8041 5.92488 11.4915 6.10255 11.2255C6.28023 10.9596 6.53276 10.7524 6.82822 10.63C7.12369 10.5076 7.4488 10.4756 7.76247 10.538C8.07613 10.6004 8.36424 10.7544 8.59038 10.9805C8.81652 11.2067 8.97052 11.4948 9.03291 11.8084C9.0953 12.1221 9.06328 12.4472 8.9409 12.7427C8.81851 13.0381 8.61126 13.2907 8.34535 13.4683C8.07944 13.646 7.76682 13.7409 7.44701 13.7409C7.23467 13.7409 7.0244 13.699 6.82822 13.6178C6.63204 13.5365 6.45379 13.4174 6.30364 13.2673C6.15349 13.1171 6.03439 12.9389 5.95313 12.7427C5.87187 12.5465 5.83004 12.3362 5.83004 12.1239ZM15.2246 16.5705C14.0774 17.4351 12.666 17.8751 11.2307 17.8156C9.79547 17.8751 8.38401 17.4351 7.2368 16.5705C7.16805 16.4868 7.13291 16.3804 7.13822 16.2722C7.14354 16.1639 7.18893 16.0615 7.26557 15.9849C7.34221 15.9082 7.44461 15.8628 7.55286 15.8575C7.66112 15.8522 7.76747 15.8873 7.85125 15.9561C8.82342 16.6692 10.0101 17.0286 11.2145 16.9748C12.4205 17.0404 13.6127 16.6924 14.594 15.9884C14.6798 15.9048 14.7953 15.8587 14.915 15.8602C14.9743 15.861 15.0329 15.8734 15.0874 15.8968C15.1419 15.9202 15.1913 15.9541 15.2327 15.9965C15.2741 16.039 15.3068 16.0892 15.3288 16.1443C15.3508 16.1994 15.3617 16.2582 15.361 16.3176C15.3602 16.3769 15.3478 16.4354 15.3244 16.4899C15.301 16.5445 15.2671 16.5938 15.2246 16.6352V16.5705ZM14.9336 13.8055C14.6138 13.8055 14.3011 13.7107 14.0352 13.533C13.7693 13.3553 13.5621 13.1028 13.4397 12.8074C13.3173 12.5119 13.2853 12.1868 13.3477 11.8731C13.4101 11.5594 13.5641 11.2713 13.7902 11.0452C14.0163 10.8191 14.3045 10.6651 14.6181 10.6027C14.9318 10.5403 15.2569 10.5723 15.5524 10.6947C15.8478 10.8171 16.1004 11.0243 16.278 11.2902C16.4557 11.5561 16.5505 11.8688 16.5505 12.1886C16.5593 12.4077 16.5235 12.6262 16.4451 12.831C16.3668 13.0358 16.2476 13.2226 16.0949 13.3799C15.9421 13.5371 15.7589 13.6617 15.5565 13.746C15.3541 13.8303 15.1367 13.8726 14.9174 13.8702L14.9336 13.8055Z" fill="white"/>
</svg>
