<svg width="22" height="19" viewBox="0 0 22 19" fill="none" xmlns="http://www.w3.org/2000/svg">
<path d="M1.69454 8.30971C7.46104 5.77809 11.3063 4.10909 13.2303 3.30271C18.7236 1.00034 19.8651 0.600389 20.609 0.587042C20.7727 0.584278 21.1386 0.625142 21.3756 0.818923C21.5757 0.982547 21.6307 1.20358 21.6571 1.35872C21.6834 1.51385 21.7162 1.86725 21.6902 2.14338C21.3925 5.29516 20.1044 12.9437 19.4491 16.4737C19.1718 17.9674 18.6258 18.4682 18.0972 18.5172C16.9485 18.6238 16.0763 17.7523 14.9637 17.0174C13.2227 15.8674 12.2392 15.1516 10.5493 14.0294C8.5963 12.7326 9.86233 12.0198 10.9753 10.8549C11.2666 10.5501 16.3278 5.91123 16.4258 5.49041C16.4381 5.43778 16.4494 5.2416 16.3338 5.13801C16.2181 5.03442 16.0474 5.06984 15.9242 5.09802C15.7496 5.13795 12.9684 6.99031 7.58056 10.6551C6.79112 11.2014 6.07607 11.4675 5.43541 11.4536C4.72914 11.4382 3.37054 11.0512 2.36057 10.7203C1.1218 10.3146 0.137245 10.1 0.222978 9.41094C0.267632 9.05201 0.758155 8.68493 1.69454 8.30971Z" fill="white"/>
</svg>
