<svg width="21" height="18" viewBox="0 0 21 18" fill="none" xmlns="http://www.w3.org/2000/svg">
<path d="M20.7299 2.62922C19.9596 2.97695 19.1436 3.20648 18.3081 3.31043C19.1878 2.76832 19.8464 1.91817 20.1624 0.916974C19.3471 1.40481 18.4435 1.75991 17.4817 1.95768C16.8471 1.26191 16.0062 0.800441 15.0895 0.644932C14.1729 0.489424 13.2318 0.648579 12.4125 1.09768C11.5931 1.54679 10.9413 2.26071 10.5583 3.12859C10.1752 3.99647 10.0824 4.96973 10.2942 5.89725C6.78786 5.72761 3.6819 4.00042 1.60126 1.39162C1.22302 2.05069 1.02574 2.8024 1.03031 3.56709C1.03031 5.07014 1.77615 6.39124 2.90606 7.16738C2.23639 7.14552 1.58152 6.95988 0.99602 6.62593V6.67866C0.99564 7.67753 1.33231 8.64576 1.9489 9.4191C2.5655 10.1924 3.42404 10.7233 4.37888 10.9215C3.76017 11.0915 3.11216 11.117 2.48256 10.9962C2.75356 11.8558 3.27955 12.6073 3.98711 13.1457C4.69467 13.6842 5.54852 13.9827 6.42951 13.9997C4.93743 15.2003 3.09507 15.8519 1.19834 15.8499C0.863997 15.8499 0.530512 15.8297 0.195312 15.791C2.1291 17.0605 4.3776 17.7344 6.67384 17.7327C14.4349 17.7327 18.6742 11.1439 18.6742 5.44019C18.6742 5.2556 18.6742 5.07102 18.6613 4.88643C19.4894 4.27542 20.2038 3.51683 20.7702 2.6468L20.7299 2.62922Z" fill="white"/>
</svg>
